<?xml version="1.0" encoding="UTF-8"?>
<svg width="152px" height="152px" viewBox="0 0 152 152" version="1.1" xmlns="http://www.w3.org/2000/svg" xmlns:xlink="http://www.w3.org/1999/xlink">
    <!-- Generator: Sketch 57.1 (83088) - https://sketch.com -->
    <title>main-feature-secondary</title>
    <desc>Created with Sketch.</desc>
    <g id="main-feature-secondary" stroke="none" stroke-width="1" fill="none" fill-rule="evenodd">
        <g id="image">
            <rect id="bound" opacity="0.0847981771" x="0" y="0" width="152" height="152"></rect>
            <path d="M60,20 L107.488417,47.1362382 C108.423142,47.6703667 109,48.6643971 109,49.7409676 L109,102.259032 C109,103.335603 108.423142,104.329633 107.488417,104.863762 L60,132 L60,132" id="path" stroke="#3D5AFE" stroke-width="2" stroke-dasharray="4,3"></path>
            <g id="browser" transform="translate(18.000000, 101.000000)">
                <g id="content" transform="translate(0.000000, 9.000000)">
                    <path d="M1,1 L1,31 L55,31 L55,1 L1,1 Z" id="path" stroke="#3D5AFE" stroke-width="2" fill="#FFFFFF"></path>
                    <g id="code-copy" transform="translate(6.000000, 6.000000)">
                        <rect id="path" fill="#3D5AFE" x="0" y="0" width="3" height="2"></rect>
                        <rect id="path" fill-opacity="0.6" fill="#3DE6FE" x="23" y="0" width="6" height="2"></rect>
                        <rect id="path" fill="#3D5AFE" x="16" y="0" width="6" height="2"></rect>
                        <rect id="path" fill="#3D5AFE" x="4" y="0" width="11" height="2"></rect>
                        <rect id="path" fill="#3D5AFE" x="0" y="16" width="5" height="2"></rect>
                        <rect id="path" fill="#3D5AFE" x="12" y="16" width="2" height="2"></rect>
                        <rect id="path" fill="#3D5AFE" x="6" y="16" width="5" height="2"></rect>
                        <rect id="path" fill-opacity="0.6" fill="#3DE6FE" x="15" y="16" width="9" height="2"></rect>
                        <rect id="path" fill-opacity="0.6" fill="#3DE6FE" x="0" y="4" width="5" height="2"></rect>
                        <rect id="path" fill="#3D5AFE" x="6" y="4" width="5" height="2"></rect>
                        <rect id="path" fill="#3D5AFE" x="12" y="4" width="15" height="2"></rect>
                        <rect id="path" fill="#3D5AFE" x="0" y="12" width="12" height="2"></rect>
                        <rect id="path" fill="#3D5AFE" x="13" y="12" width="5" height="2"></rect>
                        <rect id="path" fill="#3D5AFE" x="0" y="8" width="10" height="2"></rect>
                        <rect id="path" fill="#3D5AFE" x="28" y="8" width="3" height="2"></rect>
                        <rect id="path" fill="#3D5AFE" x="20" y="8" width="7" height="2"></rect>
                        <rect id="path" fill-opacity="0.6" fill="#3DE6FE" x="11" y="8" width="8" height="2"></rect>
                    </g>
                </g>
                <g id="bar">
                    <path d="M1,10 L55,10 L55,1 L1,1 L1,10 Z" id="path" stroke="#3D5AFE" stroke-width="2" fill="#B9C4FE"></path>
                    <circle id="bullet" fill="#3D5AFE" cx="5.5" cy="5.5" r="1.5"></circle>
                    <circle id="bullet" fill="#3D5AFE" cx="10.5" cy="5.5" r="1.5"></circle>
                    <circle id="bullet" fill="#3D5AFE" cx="15.5" cy="5.5" r="1.5"></circle>
                </g>
            </g>
            <g id="browser" transform="translate(80.000000, 55.000000)">
                <g id="content" transform="translate(0.000000, 9.000000)">
                    <path d="M1,1 L1,31 L55,31 L55,1 L1,1 Z" id="path" stroke="#3D5AFE" stroke-width="2" fill="#FFFFFF"></path>
                    <g id="code-copy" transform="translate(5.000000, 6.000000)">
                        <rect id="path" fill="#3D5AFE" x="0" y="0" width="3" height="2"></rect>
                        <rect id="path" fill-opacity="0.6" fill="#3DE6FE" x="4" y="0" width="3" height="2"></rect>
                        <rect id="path-copy" fill-opacity="0.6" fill="#3DE6FE" x="17" y="0" width="8" height="2"></rect>
                        <rect id="path" fill="#3D5AFE" x="13" y="0" width="3" height="2"></rect>
                        <rect id="path" fill="#3D5AFE" x="8" y="0" width="4" height="2"></rect>
                        <rect id="path" fill="#3D5AFE" x="22" y="16" width="5" height="2"></rect>
                        <rect id="path" fill="#3D5AFE" x="12" y="16" width="2" height="2"></rect>
                        <rect id="path" fill-opacity="0.6" fill="#3DE6FE" x="5" y="16" width="6" height="2"></rect>
                        <rect id="path-copy-8" fill="#3D5AFE" x="15" y="16" width="6" height="2"></rect>
                        <rect id="path-copy-7" fill="#3D5AFE" x="0" y="16" width="4" height="2"></rect>
                        <rect id="path" fill="#3D5AFE" x="0" y="4" width="5" height="2"></rect>
                        <rect id="path" fill="#3D5AFE" x="6" y="4" width="7" height="2"></rect>
                        <rect id="path-copy-2" fill="#3D5AFE" x="18" y="4" width="6" height="2"></rect>
                        <rect id="path" fill="#3D5AFE" x="25" y="4" width="2" height="2"></rect>
                        <rect id="path" fill="#3D5AFE" x="14" y="4" width="3" height="2"></rect>
                        <rect id="path" fill="#3D5AFE" x="0" y="12" width="12" height="2"></rect>
                        <rect id="path-copy-6" fill="#3D5AFE" x="24" y="12" width="5" height="2"></rect>
                        <rect id="path-copy-5" fill-opacity="0.6" fill="#3DE6FE" x="19" y="12" width="4" height="2"></rect>
                        <rect id="path" fill="#3D5AFE" x="13" y="12" width="5" height="2"></rect>
                        <rect id="path" fill="#3D5AFE" x="0" y="8" width="3" height="2"></rect>
                        <rect id="path-copy-3" fill="#3D5AFE" x="17" y="8" width="5" height="2"></rect>
                        <rect id="path-copy-4" fill="#3D5AFE" x="27" y="8" width="6" height="2"></rect>
                        <rect id="path" fill="#3D5AFE" x="23" y="8" width="3" height="2"></rect>
                        <rect id="path" fill-opacity="0.6" fill="#3DE6FE" x="12" y="8" width="4" height="2"></rect>
                        <rect id="path" fill="#3D5AFE" x="4" y="8" width="7" height="2"></rect>
                    </g>
                </g>
                <g id="bar">
                    <path d="M1,10 L55,10 L55,1 L1,1 L1,10 Z" id="path" stroke="#3D5AFE" stroke-width="2" fill="#B9C4FE"></path>
                    <circle id="bullet" fill="#3D5AFE" cx="5.5" cy="5.5" r="1.5"></circle>
                    <circle id="bullet" fill="#3D5AFE" cx="10.5" cy="5.5" r="1.5"></circle>
                    <circle id="bullet" fill="#3D5AFE" cx="15.5" cy="5.5" r="1.5"></circle>
                </g>
            </g>
            <g id="browser" transform="translate(18.000000, 10.000000)">
                <g id="content" transform="translate(0.000000, 9.000000)">
                    <path d="M1,1 L1,31 L55,31 L55,1 L1,1 Z" id="path" stroke="#3D5AFE" stroke-width="2" fill="#FFFFFF"></path>
                    <g id="code" transform="translate(6.000000, 6.000000)">
                        <rect id="path" fill="#3D5AFE" x="0" y="0" width="3" height="2"></rect>
                        <rect id="path" fill-opacity="0.6" fill="#3DE6FE" x="4" y="0" width="6" height="2"></rect>
                        <rect id="path" fill="#3D5AFE" x="16" y="0" width="6" height="2"></rect>
                        <rect id="path" fill="#3D5AFE" x="11" y="0" width="4" height="2"></rect>
                        <rect id="path" fill-opacity="0.6" fill="#3DE6FE" x="0" y="16" width="5" height="2"></rect>
                        <rect id="path" fill="#3D5AFE" x="12" y="16" width="10" height="2"></rect>
                        <rect id="path" fill="#3D5AFE" x="6" y="16" width="5" height="2"></rect>
                        <rect id="path" fill="#3D5AFE" x="0" y="4" width="6" height="2"></rect>
                        <rect id="path" fill="#3D5AFE" x="7" y="4" width="6" height="2"></rect>
                        <rect id="path" fill="#3D5AFE" x="25" y="4" width="2" height="2"></rect>
                        <rect id="path" fill="#3D5AFE" x="14" y="4" width="10" height="2"></rect>
                        <rect id="path" fill="#3D5AFE" x="0" y="12" width="12" height="2"></rect>
                        <rect id="path" fill="#3D5AFE" x="13" y="12" width="5" height="2"></rect>
                        <rect id="path" fill="#3D5AFE" x="0" y="8" width="10" height="2"></rect>
                        <rect id="path" fill="#3D5AFE" x="28" y="8" width="3" height="2"></rect>
                        <rect id="path" fill="#3D5AFE" x="20" y="8" width="7" height="2"></rect>
                        <rect id="path" fill-opacity="0.6" fill="#3DE6FE" x="11" y="8" width="8" height="2"></rect>
                    </g>
                </g>
                <g id="bar">
                    <path d="M1,10 L55,10 L55,1 L1,1 L1,10 Z" id="path" stroke="#3D5AFE" stroke-width="2" fill="#B9C4FE"></path>
                    <circle id="bullet" fill="#3D5AFE" cx="5.5" cy="5.5" r="1.5"></circle>
                    <circle id="bullet" fill="#3D5AFE" cx="10.5" cy="5.5" r="1.5"></circle>
                    <circle id="bullet" fill="#3D5AFE" cx="15.5" cy="5.5" r="1.5"></circle>
                </g>
            </g>
        </g>
    </g>
</svg>