<?xml version="1.0" encoding="UTF-8"?>
<svg width="72px" height="72px" viewBox="0 0 72 72" version="1.1" xmlns="http://www.w3.org/2000/svg" xmlns:xlink="http://www.w3.org/1999/xlink">
    <!-- Generator: Sketch 57.1 (83088) - https://sketch.com -->
    <title>nav-brand</title>
    <desc>Created with Sketch.</desc>
    <g id="nav-brand" stroke="none" stroke-width="1" fill="none" fill-rule="evenodd">
        <path d="M58.366,57.1855 C57.816,57.1855 57.366,56.7375 57.366,56.1855 C57.366,55.6335 57.816,55.1855 58.366,55.1855 C58.916,55.1855 59.366,55.6335 59.366,56.1855 C59.366,56.7375 58.916,57.1855 58.366,57.1855 L58.366,57.1855 Z M13.7,51.9395 C12.65,51.3315 12,50.2095 12,48.9955 L12,22.0755 C12,20.8595 12.65,19.7375 13.7,19.1315 L30.614,9.3655 L32.674,10.5555 L15.16,20.6675 C14.48,21.0615 14.062,21.7875 14.062,22.5735 L14.062,48.4975 C14.062,49.2835 14.482,50.0115 15.16,50.4035 L32.676,60.5175 L30.616,61.7055 L13.7,51.9395 Z M36.714,12.8855 L18.698,23.2875 C18.326,23.5015 18.098,23.8975 18.098,24.3255 L18.098,46.7455 C18.098,47.1735 18.326,47.5695 18.698,47.7835 L36.714,58.1855 L34.676,59.3615 L16.86,49.0755 C16.366,48.7895 16.062,48.2615 16.062,47.6895 L16.062,23.3815 C16.062,22.8095 16.366,22.2815 16.86,21.9955 L34.674,11.7095 L36.714,12.8855 Z M58.366,13.8855 C58.916,13.8855 59.366,14.3335 59.366,14.8855 C59.366,15.4375 58.916,15.8855 58.366,15.8855 C57.816,15.8855 57.366,15.4375 57.366,14.8855 C57.366,14.3335 57.816,13.8855 58.366,13.8855 L58.366,13.8855 Z M50.268,18.5575 C50.82,18.5575 51.268,19.0055 51.268,19.5575 C51.268,20.1075 50.82,20.5575 50.268,20.5575 C49.718,20.5575 49.268,20.1075 49.268,19.5575 C49.268,19.0055 49.718,18.5575 50.268,18.5575 L50.268,18.5575 Z M50.268,50.5355 C50.82,50.5355 51.268,50.9835 51.268,51.5355 C51.268,52.0875 50.82,52.5355 50.268,52.5355 C49.718,52.5355 49.268,52.0875 49.268,51.5355 C49.268,50.9835 49.718,50.5355 50.268,50.5355 L50.268,50.5355 Z M58.366,53.1855 C56.712,53.1855 55.366,54.5315 55.366,56.1855 C55.366,56.3735 55.388,56.5555 55.42,56.7335 L40.412,65.3995 C39.362,66.0075 38.066,66.0075 37.012,65.3995 L32.616,62.8595 L48.318,53.7955 C48.842,54.2515 49.52,54.5355 50.268,54.5355 C51.922,54.5355 53.268,53.1895 53.268,51.5355 C53.268,49.8815 51.922,48.5355 50.268,48.5355 C48.614,48.5355 47.268,49.8815 47.268,51.5355 C47.268,51.7155 47.29,51.8895 47.322,52.0615 L38.714,57.0315 L20.398,46.4555 C20.212,46.3495 20.098,46.1515 20.098,45.9355 L20.098,25.1355 C20.098,24.9195 20.212,24.7215 20.398,24.6155 L38.712,14.0395 L47.324,19.0115 C47.29,19.1875 47.268,19.3695 47.268,19.5575 C47.268,21.2115 48.614,22.5575 50.268,22.5575 C51.922,22.5575 53.268,21.2115 53.268,19.5575 C53.268,17.9015 51.922,16.5575 50.268,16.5575 C49.526,16.5575 48.856,16.8375 48.332,17.2835 L32.614,8.2095 L37.012,5.6715 C38.066,5.0635 39.362,5.0635 40.412,5.6715 L55.42,14.3375 C55.388,14.5155 55.366,14.6975 55.366,14.8855 C55.366,16.5395 56.712,17.8855 58.366,17.8855 C60.02,17.8855 61.366,16.5395 61.366,14.8855 C61.366,13.2315 60.02,11.8855 58.366,11.8855 C57.626,11.8855 56.956,12.1655 56.432,12.6095 L40.714,3.5355 C39.476,2.8215 37.95,2.8215 36.714,3.5355 L12,17.8035 C10.762,18.5175 10,19.8395 10,21.2675 L10,49.8035 C10,51.2315 10.762,52.5535 12,53.2675 L36.714,67.5355 C37.95,68.2495 39.476,68.2495 40.714,67.5355 L56.432,58.4595 C56.956,58.9055 57.626,59.1855 58.366,59.1855 C60.02,59.1855 61.366,57.8395 61.366,56.1855 C61.366,54.5315 60.02,53.1855 58.366,53.1855 L58.366,53.1855 Z" id="path" fill="#3D5AFE"></path>
    </g>
</svg>