<?xml version="1.0" encoding="UTF-8"?>
<svg width="152px" height="152px" viewBox="0 0 152 152" version="1.1" xmlns="http://www.w3.org/2000/svg" xmlns:xlink="http://www.w3.org/1999/xlink">
    <!-- Generator: Sketch 57.1 (83088) - https://sketch.com -->
    <title>feature-primary</title>
    <desc>Created with Sketch.</desc>
    <g id="feature-primary" stroke="none" stroke-width="1" fill="none" fill-rule="evenodd">
        <g id="image">
            <rect id="bound" opacity="0.0847981771" x="0" y="0" width="152" height="152"></rect>
            <path d="M36,64 L36,88" id="line" stroke="#3D5AFE" stroke-width="2" stroke-dasharray="4,3"></path>
            <path d="M116,64 L116,88" id="line" stroke="#3D5AFE" stroke-width="2" stroke-dasharray="4,3"></path>
            <path d="M64,45 L88,45" id="line" stroke="#3D5AFE" stroke-width="2" stroke-dasharray="4,3"></path>
            <path d="M64,107 L88,107" id="line" stroke="#3D5AFE" stroke-width="2" stroke-dasharray="4,3"></path>
            <g id="browser" transform="translate(88.000000, 88.000000)">
                <g id="content" transform="translate(0.000000, 9.000000)" stroke="#3D5AFE" stroke-width="2">
                    <path d="M1,1 L1,31 L55,31 L55,1 L1,1 Z" id="path" fill="#FFFFFF"></path>
                    <g id="check" transform="translate(20.000000, 8.000000)">
                        <circle id="path" fill-opacity="0.6" fill="#3DE6FE" cx="8" cy="8" r="8"></circle>
                        <polyline id="path" points="4.5 8.44995117 7.11181641 10.8647461 11.9384766 5"></polyline>
                    </g>
                </g>
                <g id="bar">
                    <path d="M1,10 L55,10 L55,1 L1,1 L1,10 Z" id="path" stroke="#3D5AFE" stroke-width="2" fill="#B9C4FE"></path>
                    <circle id="bullet" fill="#3D5AFE" cx="5.5" cy="5.5" r="1.5"></circle>
                    <circle id="bullet" fill="#3D5AFE" cx="10.5" cy="5.5" r="1.5"></circle>
                    <circle id="bullet" fill="#3D5AFE" cx="15.5" cy="5.5" r="1.5"></circle>
                </g>
            </g>
            <g id="browser" transform="translate(8.000000, 88.000000)">
                <g id="content" transform="translate(0.000000, 9.000000)" stroke="#3D5AFE" stroke-width="2">
                    <path d="M1,1 L1,31 L55,31 L55,1 L1,1 Z" id="path" fill="#FFFFFF"></path>
                    <g id="check" transform="translate(20.000000, 8.000000)">
                        <circle id="path" fill-opacity="0.6" fill="#3DE6FE" cx="8" cy="8" r="8"></circle>
                        <polyline id="path" points="4.5 8.44995117 7.11181641 10.8647461 11.9384766 5"></polyline>
                    </g>
                </g>
                <g id="bar">
                    <path d="M1,10 L55,10 L55,1 L1,1 L1,10 Z" id="path" stroke="#3D5AFE" stroke-width="2" fill="#B9C4FE"></path>
                    <circle id="bullet" fill="#3D5AFE" cx="5.5" cy="5.5" r="1.5"></circle>
                    <circle id="bullet" fill="#3D5AFE" cx="10.5" cy="5.5" r="1.5"></circle>
                    <circle id="bullet" fill="#3D5AFE" cx="15.5" cy="5.5" r="1.5"></circle>
                </g>
            </g>
            <g id="browser" transform="translate(88.000000, 23.000000)">
                <g id="content" transform="translate(0.000000, 9.000000)" stroke="#3D5AFE" stroke-width="2">
                    <path d="M1,1 L1,31 L55,31 L55,1 L1,1 Z" id="path" fill="#FFFFFF"></path>
                    <g id="check" transform="translate(20.000000, 8.000000)">
                        <circle id="path" fill-opacity="0.6" fill="#3DE6FE" cx="8" cy="8" r="8"></circle>
                        <polyline id="path" points="4.5 8.44995117 7.11181641 10.8647461 11.9384766 5"></polyline>
                    </g>
                </g>
                <g id="bar">
                    <path d="M1,10 L55,10 L55,1 L1,1 L1,10 Z" id="path" stroke="#3D5AFE" stroke-width="2" fill="#B9C4FE"></path>
                    <circle id="bullet" fill="#3D5AFE" cx="5.5" cy="5.5" r="1.5"></circle>
                    <circle id="bullet" fill="#3D5AFE" cx="10.5" cy="5.5" r="1.5"></circle>
                    <circle id="bullet" fill="#3D5AFE" cx="15.5" cy="5.5" r="1.5"></circle>
                </g>
            </g>
            <g id="browser" transform="translate(8.000000, 23.000000)">
                <g id="content" transform="translate(0.000000, 9.000000)" stroke="#3D5AFE" stroke-width="2">
                    <path d="M1,1 L1,31 L55,31 L55,1 L1,1 Z" id="path" fill="#FFFFFF"></path>
                    <g id="check" transform="translate(20.000000, 8.000000)">
                        <circle id="path" fill-opacity="0.6" fill="#3DE6FE" cx="8" cy="8" r="8"></circle>
                        <polyline id="path" points="4.5 8.44995117 7.11181641 10.8647461 11.9384766 5"></polyline>
                    </g>
                </g>
                <g id="bar">
                    <path d="M1,10 L55,10 L55,1 L1,1 L1,10 Z" id="path" stroke="#3D5AFE" stroke-width="2" fill="#B9C4FE"></path>
                    <circle id="bullet" fill="#3D5AFE" cx="5.5" cy="5.5" r="1.5"></circle>
                    <circle id="bullet" fill="#3D5AFE" cx="10.5" cy="5.5" r="1.5"></circle>
                    <circle id="bullet" fill="#3D5AFE" cx="15.5" cy="5.5" r="1.5"></circle>
                </g>
            </g>
        </g>
    </g>
</svg>